<svg width="128" height="128" viewBox="18 6 128 128" fill="none" xmlns="http://www.w3.org/2000/svg">
<g clip-path="url(#clip0_7_1903)">


<path d="M89.8541 51.8077C92.3007 47.2641 95.164 42.9577 98.4073 38.9439C104.341 31.6652 114.805 22.1038 123.789 18.6325C124.269 18.4469 125.395 18.1782 125.817 18.4902C127.392 19.881 128.518 23.2718 129.072 25.1786C134.171 42.7199 133.3 63.7439 122.074 78.8214C121.782 79.2138 122.1 79.7393 122.247 80.1571C121.92 81.2638 120.132 81.953 120.21 83.1699C121.031 84.0757 124.784 83.0146 122.018 86.7143C125.411 92.5343 127.969 98.4583 134.064 102.077C134.483 102.326 134.852 102.706 134.99 103.17C134.496 103.868 133.611 103.898 132.751 104.051C133.352 104.81 136.406 105.43 137.543 105.837C136.16 106.778 135.085 107.499 133.489 108.057C132.717 108.327 131.296 108.53 130.7 108.895C130.768 109.298 131.192 109.307 131.451 109.605C132.324 110.112 132.832 110.845 133.434 111.629C130.69 111.898 127.981 112.124 125.297 112.791C118.781 114.413 112.66 117.469 106.634 120.366C102.914 122.155 99.0973 123.953 95.4352 125.842C91.0434 128.107 87.5177 131.096 82.448 131.823C79.7291 132.22 76.9546 131.963 74.3552 131.072C70.9882 129.913 67.9582 127.58 64.7979 125.975C60.9968 124.045 57.131 122.198 53.2873 120.342C47.4052 117.502 41.4421 114.545 35.0934 112.894C32.3407 112.178 29.3974 111.892 26.563 111.675C27.6793 110.23 27.973 109.841 29.581 108.882C26.2777 108.054 25.2273 107.8 22.4863 105.813C24.0509 105.36 25.3696 104.975 26.9007 104.398L27.0793 104.244L27.0685 104.023C26.3982 103.855 25.2051 103.704 24.9351 103.073C25.2546 102.219 27.8516 100.794 28.6718 100.084C32.8735 96.4461 35.3821 91.5427 37.9316 86.7007C35.3213 83.1108 38.749 84.1636 39.8223 83.1118C39.8437 81.9627 38.429 81.3783 37.7824 80.4683C37.5265 80.1082 37.8788 79.7432 38.0396 79.1516C37.6087 78.0404 36.3504 76.8099 35.6927 75.7075C26.1485 59.71 25.8737 38.8311 32.2035 21.6247C33.6243 18.3524 34.089 17.6308 37.491 19.1288C43.6146 21.825 48.331 25.8258 53.2827 30.228C60.3915 36.5479 65.4741 43.5783 70.1813 51.8219C76.309 50.2883 83.7026 50.4324 89.8541 51.8077Z" fill="#341E18"/>
<path d="M115.224 101.378L118.028 101.414C123.364 101.546 126.542 103.13 132.776 102.935L133.175 103.346C133.099 103.698 132.994 103.769 132.751 104.051C133.352 104.81 136.406 105.43 137.543 105.837C136.16 106.778 135.085 107.499 133.489 108.057C132.717 108.327 131.296 108.53 130.7 108.895C130.768 109.298 131.192 109.307 131.451 109.605C132.324 110.112 132.832 110.845 133.434 111.629C130.69 111.898 127.981 112.124 125.297 112.791C118.781 114.413 112.66 117.469 106.634 120.366C102.914 122.155 99.0973 123.953 95.4352 125.842C91.0434 128.107 87.5177 131.096 82.448 131.823C79.7291 132.22 76.9546 131.963 74.3552 131.072C70.9882 129.913 67.9582 127.58 64.7979 125.975C60.9968 124.045 57.131 122.198 53.2873 120.342C47.4052 117.502 41.4421 114.545 35.0934 112.894C32.3407 112.178 29.3974 111.892 26.563 111.675C27.6793 110.23 27.973 109.841 29.581 108.882C26.2777 108.054 25.2273 107.8 22.4863 105.813C24.0509 105.36 25.3696 104.975 26.9007 104.398C27.1723 104.957 27.1284 104.811 27.7027 105.203C30.2562 103.99 31.4345 104.052 34.1235 103.522C37.8726 102.784 41.1604 101.707 45.0466 101.74C47.7462 105.669 51.2046 108.159 55.9659 109.042C58.9573 109.579 62.0335 109.397 64.9407 108.511C65.5566 109.036 66.1773 109.554 66.8023 110.068C64.8655 112.789 64.1996 114.277 64.4337 117.694C65.1754 114.637 66.3398 112.05 68.5312 109.718L68.8307 109.142C71.082 109.21 71.2623 109.412 72.9174 110.927C73.9898 109.34 75.5696 108.568 77.4691 108.205C79.8184 107.756 83.0735 107.934 85.1788 109.184C85.728 109.51 86.7223 110.569 87.1635 110.785L87.4013 110.983C89.3885 109.923 88.6619 109.538 91.3885 109.691L91.5188 109.758C91.5224 109.346 91.7641 109.082 92.0023 108.724C92.2646 109.064 92.5805 109.448 92.8043 109.808C93.5013 109.291 93.8654 108.994 94.5034 108.396L94.6574 108.649L94.9626 108.599C95.3249 108.477 97.7955 109.172 98.6485 109.252C100.385 109.421 102.136 109.356 103.854 109.059C108.658 108.227 112.156 105.683 114.919 101.768L115.224 101.378Z" fill="#FFFEFC"/>
<path d="M22.4863 105.813C24.0509 105.36 25.3696 104.975 26.9007 104.398C27.1723 104.957 27.1284 104.811 27.7027 105.203C26.5755 105.648 26.299 105.729 25.0638 105.935C28.023 107.572 31.652 107.763 35.0023 108.118C32.691 108.641 30.5524 109.214 28.6812 110.767C31.296 110.912 33.9632 111.147 36.5121 111.894C46.6482 114.871 56.009 120.307 65.5252 124.819C68.7524 126.348 71.2196 128.498 74.7318 129.746C83.0649 132.709 87.9615 128.213 94.8384 124.605C101.359 121.184 108.445 118.041 115.121 114.876C118.548 113.334 122.475 112.059 126.132 111.299C127.56 111.002 129.694 111.022 130.907 110.692L130.994 110.455L130.929 110.317C130.931 110.249 130.984 110.185 131.025 110.114L131.524 110.572C131.632 109.554 131.359 110.29 131.451 109.605C132.324 110.112 132.832 110.845 133.434 111.629C130.69 111.898 127.981 112.124 125.297 112.792C118.781 114.413 112.66 117.469 106.634 120.367C102.914 122.155 99.0973 123.953 95.4352 125.842C91.0434 128.107 87.5177 131.096 82.448 131.823C79.7291 132.22 76.9546 131.963 74.3552 131.072C70.9882 129.913 67.9582 127.58 64.7979 125.975C60.9968 124.045 57.131 122.198 53.2873 120.342C47.4052 117.502 41.4421 114.545 35.0934 112.894C32.3407 112.178 29.3974 111.892 26.563 111.675C27.6793 110.23 27.973 109.841 29.581 108.882C26.2777 108.054 25.2273 107.8 22.4863 105.813Z" fill="#341E18"/>
<path d="M72.9173 110.927C73.9896 109.34 75.5695 108.568 77.469 108.205C79.8182 107.756 83.0734 107.934 85.1787 109.184C85.7279 109.51 86.7221 110.569 87.1634 110.785L87.4012 110.983C87.0309 111.598 87.4904 112.552 87.3379 113.22C86.816 115.506 83.1326 117.663 81.1214 118.339C80.9021 118.413 80.6799 118.477 80.4554 118.531C80.2428 118.489 79.7649 118.528 79.5271 118.539C77.4979 117.961 74.411 116.327 73.2329 114.508C72.3959 113.215 72.4746 112.553 72.7574 111.174L72.9173 110.927Z" fill="#341E18"/>
<path d="M77.747 109.734C78.3228 109.717 79.7204 109.639 80.1443 109.99L80.0545 110.195C79.3936 110.654 78.2696 110.888 77.4637 111.108C76.7695 111.358 75.6687 111.903 75.1787 111.154C75.4476 110.079 76.8281 109.917 77.747 109.734Z" fill="#FFFEFC"/>
<path d="M95.9079 118.746C93.1537 124.729 88.9677 126.724 82.6541 124.122C77.4288 121.968 74.3996 127.24 69.0212 124.491C65.8195 122.855 65.9862 121.289 63.9157 118.825C63.6643 118.525 63.1896 118.56 62.8049 118.578L62.5645 118.368C62.8048 117.923 62.7715 118.037 63.2663 117.751C64.4562 117.618 65.574 119.407 66.1732 120.297C70.119 126.157 74.1879 123.899 79.6716 121.821L80.3251 121.922C80.8727 122.024 81.5562 122.26 82.0679 122.473C87.826 124.876 91.3241 124.925 94.6882 118.987L95.2538 119.238C95.4805 119.056 95.6687 118.912 95.9079 118.746Z" fill="#341E18"/>
<path d="M118.028 101.414C123.364 101.546 126.542 103.13 132.776 102.935L133.175 103.346C133.099 103.697 132.994 103.768 132.75 104.051C133.352 104.81 136.406 105.43 137.543 105.837C136.16 106.778 135.085 107.499 133.489 108.057C132.717 108.327 131.296 108.53 130.7 108.895C130.768 109.298 131.192 109.307 131.451 109.605C131.359 110.289 131.632 109.554 131.524 110.572L131.025 110.114C130.984 110.185 130.931 110.249 130.929 110.317C128.301 109.206 128.236 108.722 125.023 108.199C129.093 107.667 131.186 107.556 135.011 106.071C133.371 105.646 131.164 104.488 129.866 104.257C125.878 103.545 122.022 102.72 118.065 101.851L118.028 101.414Z" fill="#321D17"/>
<path d="M93.2946 110.329C94.3616 111.616 96.0894 114.721 95.4717 116.374C94.9544 115.894 94.2925 113.851 93.82 113.065C93.43 112.416 93.0467 111.853 92.6255 111.224C93.2003 110.78 93.0557 111.006 93.2946 110.329Z" fill="#341E18"/>
<path d="M79.5269 118.539C79.7647 118.528 80.2425 118.489 80.4551 118.531C80.2428 119.322 80.3131 121.036 80.3248 121.922L79.6714 121.821C79.6034 121.037 79.8473 119.108 79.5269 118.539Z" fill="#51413B"/>
<path d="M92.002 108.723C92.2643 109.064 92.5803 109.448 92.804 109.808L93.2701 110.048L93.2945 110.329C93.0556 111.006 93.2003 110.779 92.6254 111.224L91.5186 109.758C91.5221 109.346 91.7639 109.082 92.002 108.723Z" fill="#1D0A07"/>
<path d="M68.8303 109.142C71.0815 109.21 71.2619 109.412 72.917 110.927L72.7572 111.174C70.7656 109.991 71.48 109.531 68.5308 109.718L68.8303 109.142Z" fill="#3D1B11"/>
<path d="M94.688 118.988C95.1892 118.158 96.2839 117.365 97.2288 117.923L97.2449 118.249C96.8038 118.632 96.503 118.477 95.9077 118.746C95.6685 118.912 95.4803 119.056 95.2536 119.238L94.688 118.988Z" fill="#1D0A07"/>
<path d="M115.223 101.378L118.028 101.414L118.065 101.851C117.101 101.678 115.914 101.749 114.919 101.768L115.223 101.378Z" fill="#3D1B11"/>
<path d="M94.5033 108.396L94.6573 108.649L94.9625 108.599L93.2703 110.048L92.8042 109.808C93.5012 109.291 93.8653 108.994 94.5033 108.396Z" fill="#3D1B11"/>
<path d="M75.3268 96.8996C78.4609 95.6632 79.3276 94.8557 83.2049 96.2937C83.7651 96.5015 84.1049 96.7612 84.7278 96.9035C85.3431 99.2648 85.8107 100.672 87.2606 102.698C87.9576 103.672 88.652 104.542 89.1073 105.647C89.5929 105.553 89.4037 105.53 89.8359 105.703C90.1462 106.351 90.4563 106.733 90.8818 107.3L92.0021 108.723C91.764 109.082 91.5223 109.346 91.5187 109.758L91.3884 109.691C88.6618 109.538 89.3884 109.923 87.4012 110.983L87.1634 110.785C86.7221 110.569 85.7279 109.51 85.1787 109.184C83.0734 107.934 79.8182 107.756 77.469 108.205C75.5695 108.568 73.9896 109.34 72.9173 110.927C71.2621 109.412 71.0818 109.21 68.8306 109.142C70.1946 107.343 70.5246 105.96 71.5509 104.408C73.5968 101.313 74.2685 100.581 75.3268 96.8996Z" fill="#EA8D4C"/>
<path d="M91.042 109.03C91.2517 109.326 91.2756 109.351 91.3881 109.691C88.6615 109.538 89.3881 109.923 87.4009 110.983L87.1631 110.785C88.8161 109.17 89.0067 109.506 90.9615 109.049L91.042 109.03Z" fill="#3D1B11"/>
<path d="M90.8815 107.3L92.0018 108.723C91.7637 109.081 91.522 109.346 91.5184 109.758L91.3881 109.691C91.2756 109.351 91.2517 109.326 91.042 109.03L90.3975 108.087L90.8815 107.3Z" fill="#341E18"/>
<path d="M89.1074 105.647C89.593 105.553 89.4038 105.53 89.836 105.703C90.1463 106.351 90.4565 106.733 90.882 107.3L90.3979 108.087C89.9746 107.489 89.3723 106.317 89.1074 105.647Z" fill="#1D0A07"/>
<path d="M117.133 93.5118L121.19 87.9242C123.448 92.1495 125.406 95.8904 128.68 99.5112C129.473 100.389 132.393 102.403 132.776 102.935C126.542 103.13 123.364 101.546 118.028 101.414L115.224 101.378C116.551 98.5428 117.194 96.6964 117.133 93.5118Z" fill="#EA8D4C"/>
<path d="M75.3267 96.8997C75.3075 93.0769 82.3025 93.1742 84.2587 95.2984C84.704 95.782 84.677 96.2862 84.7276 96.9036C84.1048 96.7612 83.765 96.5016 83.2048 96.2937C79.3275 94.8558 78.4608 95.6633 75.3267 96.8997Z" fill="#D3733D"/>
<path d="M89.8359 105.703C90.6291 106.06 93.8436 107.909 94.5033 108.396C93.8653 108.994 93.5013 109.291 92.8042 109.808C92.5805 109.448 92.2645 109.064 92.0022 108.723L90.8819 107.3C90.4564 106.733 90.1462 106.351 89.8359 105.703Z" fill="#EA8D4C"/>
<path d="M34.8145 19.5333C37.2182 20.3844 38.3704 20.7448 40.2984 22.3716C43.242 22.6579 54.9015 33.3016 57.1661 35.9607C61.4539 40.4958 65.9657 46.828 68.9473 52.3263C67.1114 52.9651 66.1884 53.3832 64.6412 54.6018C66.154 54.3393 67.7203 53.7935 69.2104 53.3874C77.9101 51.0168 86.7434 51.8166 95.2281 54.7173C93.9593 53.3635 92.6336 52.9316 90.9293 52.3085C94.9996 46.1319 97.3857 41.544 102.791 36.0099C104.777 33.191 116.273 23.3799 119.571 22.3916C121.66 20.8516 122.711 20.291 125.194 19.5104C129.224 26.1585 130.91 39.6857 130.727 47.3979C130.644 51.679 130.095 55.9383 129.092 60.101C127.373 67.1263 124.823 72.8858 120.69 78.7902C120.103 79.6285 121.018 79.9016 119.199 81.7913C118.57 80.4687 117.614 78.8407 116.695 77.7026C117.59 80.079 118.806 82.8312 119.852 85.178C119.183 86.0333 116.907 88.7879 116.446 89.5527C114.402 85.3462 112.45 82.7529 108.089 80.6302C99.6601 77.2965 92.1521 79.3107 86.6806 86.5699C85.6128 88.6455 84.9275 90.3401 84.6162 92.6765C81.1045 91.2857 78.8106 91.3837 75.3707 92.7698C75.2361 90.6413 74.3789 88.5905 73.382 86.7343C68.5146 79.5391 60.1622 77.318 52.1918 80.4876C47.397 82.9849 45.9629 84.7724 43.5753 89.4554C42.4748 88.0365 41.3303 86.6523 40.1432 85.3049C41.2281 82.9869 42.3189 80.174 43.3109 77.7879C42.4448 78.6185 41.4107 80.6416 40.7815 81.7576C39.3245 80.3183 39.5425 80.6202 39.294 78.8063C39.2798 78.7029 37.7086 76.3827 37.5175 76.0868C36.4564 74.4254 35.4993 72.6996 34.6517 70.9198C33.0103 67.3569 31.7343 63.6368 30.8437 59.8165C28.2476 48.8576 29.0228 36.6305 32.1482 25.8287C32.8395 23.4396 33.5125 21.6468 34.8145 19.5333Z" fill="#EA8D4C"/>
<path d="M40.2983 22.3716C43.2419 22.6578 54.9014 33.3016 57.1659 35.9606C56.4859 37.2436 55.1033 41.2728 54.5825 41.9277C55.7769 44.3024 57.0645 46.7996 57.9805 49.2864C57.7859 49.4646 57.3492 49.841 57.1926 50.0178L57.8356 51.6964C58.1058 51.4147 58.2662 51.3939 58.6394 51.2653C59.4567 53.6161 59.8862 55.6017 60.4333 58.0244C54.8608 61.491 45.745 70.885 43.0126 76.7172L42.9464 76.6508C41.5072 75.1953 39.9522 73.0747 38.873 71.3421C30.6301 58.1046 30.0273 40.6238 34.4853 25.9816C34.7923 24.973 35.1875 23.0266 36.4 23.1544C39.6942 24.6606 42.1708 26.7288 44.8075 29.193C44.8226 29.0713 44.8408 28.9241 44.8622 28.7514C43.8792 26.9538 41.1837 24.0077 40.2983 22.3716Z" fill="#FFFEFC"/>
<path d="M34.3036 28.5852C36.5286 29.5661 39.7417 35.036 40.6432 37.284C42.1397 41.0163 39.8617 45.2816 40.2647 49.2432C40.331 49.8932 40.2422 50.5755 40.4955 51.223L40.3917 51.5916C39.398 55.9854 43.57 67.1288 45.9472 70.8185C44.7158 72.6197 43.8508 74.1785 42.86 76.0874C41.3271 74.1054 40.1046 72.3555 38.8274 70.2183C31.6744 58.2482 30.8802 41.8896 34.3036 28.5852Z" fill="#F4B5B3"/>
<path d="M40.2984 22.3716C43.242 22.6578 54.9015 33.3016 57.1661 35.9606C56.4861 37.2436 55.1034 41.2728 54.5826 41.9277C55.777 44.3024 57.0646 46.7996 57.9806 49.2864C57.7861 49.4646 57.3493 49.841 57.1928 50.0178C55.5826 46.1664 53.3756 41.5064 50.4964 38.4725C48.8934 36.7833 46.45 34.4406 44.2692 33.5321C44.3776 33.3225 44.6075 33.1077 44.7775 32.9261C44.2303 32.7635 44.182 32.6389 43.7575 32.8231C42.6893 35.0364 46.7018 43.3041 48.2931 45.2191C45.1612 44.178 44.3014 43.8444 40.9909 43.9231C42.2062 47.0574 45.2501 49.3271 47.9556 51.1533C45.2353 50.5361 43.1457 50.3211 40.4956 51.223C40.2423 50.5755 40.3311 49.8931 40.2648 49.2431C39.8618 45.2816 42.1398 41.0163 40.6432 37.2839C39.7418 35.036 36.5287 29.5661 34.3037 28.5852C34.5434 27.4222 35.4365 24.4163 36.1892 23.5383L36.4001 23.1544C39.6943 24.6606 42.1709 26.7288 44.8076 29.193C44.8228 29.0713 44.8409 28.9241 44.8623 28.7514C43.8793 26.9538 41.1839 24.0077 40.2984 22.3716Z" fill="#D88B8B"/>
<path d="M40.2983 22.3716C43.2419 22.6578 54.9015 33.3016 57.166 35.9606C56.486 37.2436 55.1033 41.2728 54.5826 41.9277C52.8354 39.0385 50.8268 36.0866 48.7174 33.4428C47.5807 32.018 45.9694 30.6099 44.8076 29.193C44.8227 29.0713 44.8408 28.9241 44.8622 28.7514C43.8793 26.9538 41.1838 24.0077 40.2983 22.3716Z" fill="#9F5627"/>
<path d="M36.4004 23.1544C39.6946 24.6607 42.1712 26.7288 44.8079 29.193C45.9698 30.6099 47.581 32.018 48.7177 33.4429C50.8271 36.0866 52.8357 39.0385 54.5829 41.9277C55.7773 44.3024 57.0649 46.7996 57.9809 49.2865C57.7863 49.4646 57.3496 49.841 57.193 50.0179C55.5829 46.1665 53.3759 41.5064 50.4966 38.4725C48.8937 36.7833 46.4502 34.4407 44.2695 33.5321C44.3779 33.3225 44.6077 33.1077 44.7777 32.9261C46.4362 33.8402 47.6106 34.8127 49.0671 35.9893C46.4177 31.3954 40.7001 26.2744 36.1895 23.5383L36.4004 23.1544Z" fill="#241410"/>
<path d="M43.0126 76.7171L42.9464 76.6507C41.5072 75.1952 39.9522 73.0746 38.873 71.342C30.6301 58.1045 30.0273 40.6237 34.4853 25.9815C34.7923 24.9729 35.1875 23.0265 36.4 23.1543L36.189 23.5382C35.4364 24.4162 34.5433 27.4221 34.3036 28.5851C30.8801 41.8895 31.6744 58.2481 38.8273 70.2182C40.1045 72.3554 41.327 74.1053 42.86 76.0873C43.8508 74.1784 44.7158 72.6196 45.9472 70.8184C43.57 67.1287 39.398 55.9853 40.3917 51.5915L40.4955 51.2229C43.1456 50.321 45.2351 50.536 47.9555 51.1532C45.25 49.327 42.2061 47.0573 40.9908 43.9231C44.3012 43.8443 45.1611 44.1779 48.293 45.219C46.7017 43.304 42.6892 35.0363 43.7573 32.8231C44.1819 32.6388 44.2301 32.7634 44.7773 32.926C44.6073 33.1076 44.3775 33.3224 44.269 33.532C45.4248 38.7523 47.0817 42.9518 50.6187 47.0323C47.4419 45.4768 45.5283 44.8165 42.0053 44.5943C44.6084 48.1601 47.7709 50.1862 51.3214 52.7265C47.5544 51.7796 45.2145 51.0418 41.3155 51.5943C43.7409 53.9668 45.6798 55.3674 48.2611 57.4943L48.2298 57.7156C46.5347 58.8837 45.05 59.7298 43.9806 61.546C46.0383 61.6845 48.9359 61.5837 51.0076 61.2463C49.943 62.5952 47.5441 65.8826 48.1816 67.6221C48.5147 67.517 48.6609 67.2356 48.889 66.9796C51.7581 63.7604 55.7694 59.7092 59.5941 57.602C59.0525 55.6199 58.5425 53.6252 57.8356 51.6963C58.1058 51.4146 58.2662 51.3938 58.6394 51.2652C59.4567 53.616 59.8862 55.6017 60.4333 58.0243C54.8608 61.4909 45.745 70.8849 43.0126 76.7171Z" fill="#050201"/>
<path d="M40.392 51.5916C42.5342 54.0276 44.6601 55.6998 47.3121 57.5337C46.1276 58.162 42.8084 60.5698 43.211 61.9884C44.1292 62.6655 47.8273 62.3795 48.9284 62.2187C49.0677 62.1983 49.2067 62.1751 49.3449 62.1494C48.2357 63.8606 47.6154 65.1137 47.5354 67.1998C47.4673 68.9792 46.9862 69.477 45.9474 70.8184C43.5702 67.1287 39.3982 55.9853 40.392 51.5916Z" fill="#D88B8B"/>
<path d="M111.326 35.7147C111.399 34.6042 114.466 31.3992 115.364 30.4342C117.913 27.695 120.589 25.3904 123.861 23.5464C124.715 25.0959 125.288 26.8629 125.717 28.5773C122.95 30.2004 119.902 35.2801 118.985 38.3403C118.441 40.152 119.558 44.4984 119.662 46.5019C119.738 47.9729 119.722 49.7892 119.615 51.2709C119.608 51.5026 119.631 51.6033 119.545 51.8095C120.175 55.8323 116.702 67.7544 114.072 70.8369C113.515 70.0878 112.728 69.1422 112.411 68.2915L112.326 68.1925L111.883 68.2095L111.823 67.9336C109.873 65.0422 103.508 59.3162 100.396 57.524C102.16 51.3354 104.254 45.4398 108.067 40.0803C108.548 39.404 110.779 37.1944 111.434 36.5283L111.067 36.1978L111.326 35.7147Z" fill="#FFFEFC"/>
<path d="M111.326 35.7147C111.399 34.6042 114.467 31.3992 115.364 30.4342C117.913 27.695 120.589 25.3904 123.861 23.5464C124.715 25.0959 125.288 26.8629 125.717 28.5773C122.95 30.2004 119.902 35.2801 118.985 38.3403C118.442 40.152 119.558 44.4984 119.662 46.5019C119.738 47.9729 119.722 49.7892 119.615 51.2709C117.071 50.2786 114.993 50.6365 112.356 51.0234C114.989 49.1412 117.663 46.955 119.131 44.015C116.288 43.6709 114.361 44.2945 111.694 45.2178C114.734 41.0001 115.868 37.4239 116.655 32.3726C114.429 33.067 113.041 34.187 111.326 35.7147Z" fill="#D88B8B"/>
<path d="M112.635 57.5605C114.982 56.0968 117.555 53.7066 119.545 51.8096C120.174 55.8324 116.702 67.7544 114.072 70.8369C113.515 70.0879 112.728 69.1422 112.411 68.2916C113.478 66.7232 111.499 63.4871 110.62 62.15C111.663 62.3536 116.152 62.7 116.847 61.9588C117.071 60.4244 113.898 58.2233 112.635 57.5605Z" fill="#D88B8B"/>
<path d="M111.326 35.7146C113.04 34.1869 114.428 33.0669 116.655 32.3726C115.867 37.4238 114.733 41.0001 111.693 45.2177C114.36 44.2944 116.288 43.6708 119.13 44.0149C117.662 46.9549 114.989 49.1412 112.356 51.0233C114.992 50.6365 117.07 50.2785 119.615 51.2708C119.608 51.5026 119.631 51.6032 119.545 51.8094C117.555 53.7065 114.982 56.0966 112.635 57.5604C113.898 58.2232 117.071 60.4243 116.847 61.9587C116.152 62.6999 111.663 62.3535 110.619 62.1499C111.499 63.4869 113.478 66.723 112.411 68.2915L112.326 68.1924L111.882 68.2094L111.823 67.9335C112.691 66.2321 110.083 62.513 108.909 61.2693C111.574 61.5399 113.301 61.6641 116.019 61.5432C114.948 59.7163 113.272 58.483 111.335 57.6847C113.973 55.8496 116.44 53.7796 118.705 51.5001C114.626 51.1593 112.633 51.7301 108.721 52.7176C112.162 50.2337 115.497 48.0629 117.999 44.5919C114.591 44.8101 112.552 45.4874 109.461 46.9538C112.844 43.1469 114.67 38.344 115.761 33.4418C113.877 34.4669 113.089 35.1205 111.434 36.5282L111.067 36.1977L111.326 35.7146Z" fill="#050201"/>
<path d="M119.615 51.2709C119.722 49.7891 119.738 47.9729 119.662 46.5018C119.558 44.4984 118.441 40.152 118.985 38.3402C119.902 35.2801 122.95 30.2004 125.717 28.5773C129.078 42.2146 128.434 58.201 121.016 70.4401C120.48 71.3243 117.735 75.6445 117.104 75.8248C116.868 75.5329 116.791 75.4426 116.614 75.1149C115.833 73.5951 114.982 72.2774 114.072 70.8368C116.702 67.7543 120.175 55.8323 119.545 51.8095C119.631 51.6032 119.608 51.5026 119.615 51.2709Z" fill="#F4B5B3"/>
<path d="M102.791 36.0098C104.777 33.1909 116.273 23.3798 119.571 22.3915C118.844 23.8196 115.556 27.6202 115.364 28.5732L115.475 28.8441L115.415 28.9155C114.828 29.5991 113.96 30.2754 113.407 30.9232C111.316 33.3735 106.587 39.2976 105.289 42.201C104.212 39.3487 104.437 39.0229 102.791 36.0098Z" fill="#9F5627"/>
<path d="M90.1032 77.6896C95.4562 75.4982 100.369 75.9782 105.669 78.0401C106.318 77.9001 106.457 77.6696 106.905 77.1627C107.389 77.6649 108.611 78.864 108.632 79.5101L108.447 79.6749C108.304 80.0065 108.172 80.2769 108.089 80.6302C99.6603 77.2965 92.1523 79.3107 86.6807 86.5699C85.7462 84.4985 88.4215 79.1713 90.1032 77.6896Z" fill="#D3733D"/>
<path d="M106.905 77.1626C107.389 77.6648 108.611 78.8638 108.632 79.5099L108.447 79.6748C107.892 79.2321 106.359 78.424 105.669 78.0399C106.318 77.8999 106.457 77.6695 106.905 77.1626Z" fill="#1D0A07"/>
<path d="M51.4985 79.4669C52.0088 79.3592 53.5524 78.4345 54.1343 78.1467C55.2957 77.5723 56.4215 77.2748 57.6657 76.9691C62.5687 75.7641 65.3804 76.1612 70.0267 77.6144C71.149 79.46 74.5892 84.5044 73.3821 86.7342C68.5148 79.5391 60.1623 77.318 52.192 80.4875C52.0629 80.0437 51.8038 79.807 51.4985 79.4669Z" fill="#D3733D"/>
<path d="M115.475 28.8443C117.33 27.0563 121.264 23.821 123.775 23.1482L123.861 23.5465C120.589 25.3905 117.912 27.6951 115.364 30.4343C114.466 31.3993 111.398 34.6043 111.326 35.7148L111.067 36.1979L111.434 36.5284C110.779 37.1944 108.548 39.4041 108.066 40.0804C104.254 45.4399 102.16 51.3355 100.396 57.5241C103.508 59.3163 109.872 65.0423 111.823 67.9337L111.882 68.2096L112.326 68.1926L112.411 68.2916C112.728 69.1423 113.515 70.0879 114.072 70.8369C114.981 72.2776 115.833 73.5952 116.614 75.1151L116.264 75.4507C116.118 75.0654 114.784 73.0794 114.489 72.646C110.328 66.5319 105.253 62.4832 99.5674 57.9273C101.037 50.9641 102.332 48.3791 105.289 42.2012C106.587 39.2977 111.316 33.3737 113.407 30.9233C113.96 30.2755 114.828 29.5993 115.415 28.9157L115.475 28.8443Z" fill="#1C100C"/>
<path d="M51.4986 79.4669L51.4971 79.2485C52.2205 77.8621 53.4743 76.7255 54.6608 75.7373C57.4779 73.3908 61.3914 71.7654 65.1029 72.1102C66.7786 72.2659 68.6957 72.9377 69.5897 74.4596C69.9019 74.991 69.889 75.3657 70.3022 75.8677C70.8938 75.4374 70.7399 74.5038 71.2624 74.1027C72.0775 75.3279 70.8574 76.7674 70.0268 77.6144C65.3805 76.1613 62.5688 75.7641 57.6658 76.9691C56.4216 77.2749 55.2958 77.5724 54.1344 78.1468C53.5525 78.4346 52.0089 79.3593 51.4986 79.4669Z" fill="#050201"/>
<path d="M64.179 72.882C65.4104 72.7415 67.527 73.1885 68.3848 74.1034C68.9054 74.6587 69.8165 75.7704 69.8139 76.5304C69.3717 76.9746 68.6686 76.6262 68.0283 76.4009C65.0681 75.3588 62.4794 75.4117 59.4125 75.8632C58.1425 76.0837 54.8544 77.2498 54.3198 77.1584L54.4073 76.8806C57.3008 74.154 60.3348 73.171 64.179 72.882Z" fill="#9F5627"/>
<path d="M90.1032 77.6895C89.0861 76.8668 88.0255 75.5283 88.6918 74.1792L88.896 74.1131C89.1044 74.655 89.2191 75.0739 89.371 75.6343L89.586 75.755C91.1221 73.479 92.1502 72.169 95.2328 72.0637C99.8839 71.9047 103.548 74.1548 106.905 77.1626C106.457 77.6695 106.318 77.9 105.669 78.04C100.369 75.9781 95.4561 75.4981 90.1032 77.6895Z" fill="#050201"/>
<path d="M95.329 72.8713C95.5268 72.8664 95.7245 72.8647 95.9223 72.8663C99.8937 72.8996 103.753 74.9833 106.493 77.7619C104.543 76.9168 103.148 76.3222 101.044 75.9818C98.3188 75.5338 95.7229 75.3513 92.9957 76.0319C92.1482 76.2436 90.992 76.8897 90.2276 76.866L90.0337 76.6405C90.034 75.996 90.6724 75.1275 91.0826 74.6593C92.3559 73.2057 93.5551 73.0202 95.329 72.8713Z" fill="#9F5627"/>
<path d="M123.776 23.1482C124.192 23.2351 124.256 23.1849 124.508 23.619C125.321 25.0235 125.942 27.1393 126.336 28.6924C128.586 37.6676 128.929 47.3549 127.067 56.4312C125.759 62.8069 122.97 69.2376 118.912 74.3449C118.497 74.8671 117.582 76.3733 117.108 76.5752C116.728 76.3096 116.513 75.8598 116.265 75.4507L116.614 75.1151C116.792 75.4427 116.868 75.533 117.104 75.8249C117.735 75.6446 120.48 71.3244 121.016 70.4402C128.434 58.2012 129.078 42.2148 125.717 28.5774C125.288 26.863 124.715 25.096 123.861 23.5465L123.776 23.1482Z" fill="#050201"/>
<path d="M57.9807 49.2864C58.1057 49.6589 58.5749 50.957 58.6396 51.2653C58.2665 51.3939 58.106 51.4147 57.8358 51.6964L57.1929 50.0178C57.3494 49.8409 57.7862 49.4645 57.9807 49.2864Z" fill="#1D0A07"/>
<path d="M47.4916 101.366C46.4122 100.775 45.8032 98.8128 45.4655 97.6475C44.5319 94.4794 44.9064 91.0694 46.5055 88.1795C48.3189 84.9177 51.6114 82.5853 55.1769 81.5934C59.0347 80.5064 63.168 81.0251 66.6377 83.0316C69.7486 84.8084 72.0999 87.6555 73.0288 91.1372C73.8885 94.2856 73.4421 97.6476 71.7907 100.463C69.9921 103.553 67.1149 105.705 63.6649 106.764C63.4221 106.838 63.3319 106.835 63.0941 106.781C62.9485 106.85 62.8067 106.932 62.6533 106.962C61.7507 107.515 58.0619 107.377 56.9153 107.182C53.7132 106.638 50.0088 104.947 48.0666 102.278L48.1272 101.9C48.0536 101.656 47.7566 101.538 47.4916 101.366Z" fill="#EA8D4C"/>
<path d="M48.127 101.901C52.2767 103.023 59.1144 104.103 62.6531 106.962C61.7505 107.515 58.0617 107.377 56.9152 107.182C53.713 106.638 50.0086 104.947 48.0664 102.278L48.127 101.901Z" fill="#FFFEFC"/>
<path d="M47.4917 101.366C52.1544 101.882 57.1894 103.393 61.3076 105.646C61.7731 105.9 62.7701 106.415 63.0942 106.781C62.9486 106.85 62.8069 106.932 62.6534 106.962C59.1147 104.103 52.277 103.023 48.1273 101.9C48.0537 101.656 47.7567 101.538 47.4917 101.366Z" fill="#1D0A07"/>
<path d="M49.7158 90.935C51.678 88.8206 53.1272 87.406 55.8986 86.4578C61.4393 84.5624 67.6443 86.0946 69.6774 92.1191C70.0571 93.285 70.695 96.0914 70.3496 97.2397L70.1741 97.3764C69.3833 97.7721 68.5883 98.1594 67.7894 98.5381C65.7089 100.7 59.7233 99.8549 57.1227 98.8911C56.9046 98.8206 56.691 98.7369 56.483 98.6402C52.7158 96.9036 51.1189 94.7583 49.7158 90.935Z" fill="#341E18"/>
<path d="M51.7983 92.9094C53.6726 92.4842 54.7271 92.1133 56.7355 91.7478C57.0863 93.9292 57.5183 95.7459 59.4805 97.1328C60.6244 97.9562 62.0583 98.2687 63.441 97.9959C65.8269 97.5262 66.9465 95.7036 67.7363 93.5975C68.439 94.2647 68.8679 94.6897 69.6772 95.2405C69.7947 96.0475 69.8421 96.6191 70.174 97.3764C69.3832 97.772 68.5882 98.1594 67.7893 98.5381C65.7088 100.7 59.7232 99.8548 57.1226 98.8911C57.3566 98.5739 57.5032 98.4386 57.7815 98.167C54.9637 96.695 53.4282 95.6353 51.7983 92.9094Z" fill="#FFFEFC"/>
<path d="M57.1226 98.8911C57.3566 98.5739 57.5032 98.4386 57.7815 98.167C61.1851 99.4684 64.2754 99.6384 67.7893 98.5381C65.7088 100.7 59.7232 99.8548 57.1226 98.8911Z" fill="#050201"/>
<path d="M51.7983 92.9094C51.4774 92.3049 51.3947 92.3716 51.4254 91.7805C52.3157 90.0572 55.626 88.7945 57.4293 88.01C57.0741 89.2339 56.7185 90.4645 56.7355 91.7478C54.7271 92.1133 53.6726 92.4842 51.7983 92.9094Z" fill="#D5D5D7"/>
<path d="M67.7363 93.5974C67.9288 92.8426 68.0526 91.6685 68.1524 90.8608C68.407 91.5432 68.6485 92.1024 68.9504 92.7657C69.0707 92.5516 69.4657 92.2829 69.6773 92.119C70.057 93.2849 70.6949 96.0913 70.3495 97.2396L70.174 97.3763C69.8421 96.619 69.7948 96.0474 69.6773 95.2404C68.8679 94.6896 68.439 94.2646 67.7363 93.5974Z" fill="#D5D5D7"/>
<path d="M68.9507 92.7659C69.071 92.5518 69.466 92.283 69.6776 92.1191C70.0572 93.2851 70.6952 96.0915 70.3497 97.2398L70.1743 97.3765C69.8424 96.6191 69.7951 96.0476 69.6776 95.2405C69.5213 94.1487 69.3563 93.7798 68.9507 92.7659Z" fill="#050201"/>
<path d="M57.5435 91.6904C57.9578 91.6948 58.081 91.7018 58.4852 91.7898C58.7497 92.055 58.8497 92.4045 58.9219 92.7781C59.6145 96.3454 63.9522 97.1676 65.4972 93.6553C65.7531 93.0734 66.3127 91.795 67.0422 91.9776C67.2581 92.397 67.1592 92.7195 67.0983 93.2012C66.7781 94.3154 66.5413 95.0701 65.7166 95.9576C64.9003 96.8531 63.753 97.3754 62.5416 97.4031C61.3102 97.434 60.1188 96.9647 59.2392 96.1023C58.0303 94.9295 57.5805 93.3331 57.5435 91.6904Z" fill="#EA8D4C"/>
<path d="M59.0365 88.8306C59.4563 88.6139 59.9616 88.646 60.3505 88.9145C60.7394 89.1829 60.9488 89.6439 60.8952 90.1132C60.8415 90.5828 60.5335 90.9846 60.0941 91.1582C59.4597 91.409 58.7404 91.1184 58.4582 90.4975C58.176 89.8765 58.4304 89.1434 59.0365 88.8306Z" fill="#FFFEFC"/>
<path d="M61.2686 83.3406C64.8119 83.0036 67.8219 85.3764 69.1672 88.5167C67.8231 86.87 67.0722 85.9502 65.2634 84.8377C61.3864 83.0103 58.8745 84.4391 55.3433 85.6011C57.4731 84.1261 58.7422 83.6049 61.2686 83.3406Z" fill="#1D0A07"/>
<path d="M96.7972 106.897C82.5211 102.722 83.563 84.799 97.3719 81.461C101.225 80.519 105.296 81.1634 108.67 83.2493C115.297 87.3359 116.879 94.757 112.832 101.324C111.98 101.416 111.128 101.517 110.278 101.625L110.446 102.229C110.945 102.128 111.495 101.954 111.952 102.106C111.741 102.85 110.124 104.112 109.47 104.574C106.08 106.966 101.757 107.911 97.6806 107.115C97.5488 107.089 97.4288 107.005 97.3178 106.935L97.133 107.071L96.7972 106.897Z" fill="#EA8D4C"/>
<path d="M110.446 102.229C110.945 102.128 111.496 101.953 111.952 102.106C111.741 102.849 110.124 104.112 109.47 104.574C106.08 106.966 101.757 107.911 97.6807 107.115C97.5488 107.089 97.4288 107.005 97.3179 106.935C101.376 104.464 105.783 103.042 110.446 102.229Z" fill="#FFFEFC"/>
<path d="M96.7969 106.897C97.1722 106.395 97.9925 106.007 98.5553 105.69C102.359 103.55 106.08 102.542 110.278 101.625L110.446 102.229C105.783 103.042 101.375 104.465 97.3175 106.935L97.1327 107.071L96.7969 106.897Z" fill="#1D0A07"/>
<path d="M91.0146 90.4777C95.661 83.0963 105.253 84.8863 110.218 90.9297C108.943 95.1425 106.648 97.353 102.615 99.01C100.03 99.8891 97.3902 100.16 94.6788 99.6722C94.018 99.5535 92.5088 99.1197 92.1274 98.5594C91.1896 98.1547 90.704 97.9289 89.8219 97.4041L89.6179 97.1322C89.3845 95.0399 90.0984 92.3621 91.0146 90.4777Z" fill="#341E18"/>
<path d="M91.0146 90.4775L91.399 90.628C91.4615 90.9263 91.4846 91.3302 91.6765 91.4888C91.8809 92.2285 92.1007 92.9816 92.263 93.7302C93.1071 95.8474 94.2591 97.5755 96.681 98.0096C98.0224 98.2471 99.4027 97.9238 100.499 97.1152C102.381 95.7524 102.949 93.8983 103.272 91.7543C104.954 91.983 106.551 92.4007 108.08 93.1555C106.484 95.5649 104.998 96.6519 102.444 98.0522L102.615 99.0099C100.03 99.8889 97.3902 100.16 94.6788 99.6721C94.018 99.5533 92.5088 99.1196 92.1274 98.5593C91.1896 98.1546 90.704 97.9288 89.8219 97.4039L89.6179 97.1321C89.3845 95.0397 90.0984 92.3619 91.0146 90.4775Z" fill="#FFFEFC"/>
<path d="M91.0146 90.4775L91.399 90.628C91.4615 90.9263 91.4846 91.3302 91.6765 91.4888C91.8809 92.2285 92.1007 92.9816 92.263 93.7302C91.5841 94.2697 91.221 94.613 90.4019 94.8735C90.2557 95.6274 90.0837 96.7097 89.8219 97.4039L89.6179 97.1321C89.3845 95.0397 90.0984 92.3619 91.0146 90.4775Z" fill="#050201"/>
<path d="M90.4023 94.8737C90.5011 93.9507 91.1469 92.2603 91.6769 91.489C91.8813 92.2287 92.1011 92.9818 92.2634 93.7304C91.5845 94.27 91.2214 94.6132 90.4023 94.8737Z" fill="#D5D5D7"/>
<path d="M92.1274 98.5594C96.0287 99.6843 98.7276 99.4588 102.444 98.0524L102.615 99.01C100.03 99.8891 97.3903 100.16 94.6788 99.6722C94.0181 99.5535 92.5088 99.1197 92.1274 98.5594Z" fill="#050201"/>
<path d="M102.521 87.9943C104.981 89.0438 106.808 89.9222 108.789 91.7696L108.08 93.1557C106.551 92.4008 104.954 91.9832 103.272 91.7544C103.179 90.3741 102.996 89.3077 102.521 87.9943Z" fill="#D5D5D7"/>
<path d="M101.695 91.6252C101.899 91.7024 102.344 91.887 102.358 92.1196C102.41 92.9862 102.136 94.0973 101.722 94.8338C101.056 96.0171 99.9415 96.8826 98.6303 97.2351C96.1237 97.8849 93.8495 96.5182 93.2017 94.0188C92.9223 93.2306 92.6973 92.794 93.0345 92.0037L93.3297 91.932C94.2825 92.401 94.489 94.887 96.2411 95.6868C99.4125 97.1345 100.492 93.7485 101.695 91.6252Z" fill="#EA8D4C"/>
<path d="M94.5947 89.1291C95.0132 88.9758 95.4818 89.0603 95.82 89.3503C96.1583 89.6403 96.3135 90.0905 96.226 90.5273C96.1383 90.9642 95.8215 91.3197 95.3976 91.4567C94.7593 91.6631 94.0733 91.3206 93.8547 90.6865C93.636 90.0525 93.9651 89.36 94.5947 89.1291Z" fill="#FFFEFC"/>
<path d="M97.9294 83.3197C100.488 83.186 102.708 84.2746 104.741 85.691C101.331 84.3899 99.5535 83.4928 95.914 84.3149C93.4572 85.4086 92.7657 86.1097 90.9507 88.1163C92.6026 84.8638 94.3954 83.7997 97.9294 83.3197Z" fill="#1D0A07"/>
<path d="M38.815 88.0419C39.3302 88.4144 42.2544 92.6616 42.9283 93.5748C42.9242 96.4061 43.3931 98.8916 44.8147 101.361C39.5814 101.413 37.932 101.778 32.8459 102.631C30.6653 102.97 29.1805 102.992 26.957 103.058C33.9456 97.8328 34.6608 95.0431 38.815 88.0419Z" fill="#EA8D4C"/>
<path d="M69.8235 105.772C69.9526 105.903 69.8943 105.854 69.9171 106.121C68.9091 107.607 68.5785 108.201 67.2685 109.41C66.7457 109.546 66.9718 109.557 66.3838 109.264C65.9746 108.954 65.9015 108.881 65.5601 108.494L65.5907 108.26C67.2129 107.501 68.4051 106.859 69.8235 105.772Z" fill="#EA8D4C"/>
</g>
<defs>
<clipPath id="clip0_7_1903">
<rect width="160" height="160" fill="white"/>
</clipPath>
</defs>
</svg>
